HIERARCHY
ROOT pelvis
{
  OFFSET 0 100 0
  CHANNELS 6 Xposition Yposition Zposition Zrotation Xrotation Yrotation
  JOINT pelvis_right_femur
  {
    OFFSET -10.78128 -3.44521 -0.5502486
    CHANNELS 3 Zrotation Xrotation Yrotation
    JOINT right_femur_tibia
    {
      OFFSET -0.8047443 -44.0398 -0.1307829
      CHANNELS 3 Zrotation Xrotation Yrotation
      JOINT right_tibia_foot
      {
        OFFSET 3.006224 -47.83518 -5
        CHANNELS 3 Zrotation Xrotation Yrotation
        End Site
        {
          OFFSET 0 -5 15
        }
      }
    }
  }
  JOINT pelvis_left_femur
  {
    OFFSET 10.78128 -3.44521 -0.5502486
    CHANNELS 3 Zrotation Xrotation Yrotation
    JOINT left_femur_tibia
    {
      OFFSET 0.8047443 -44.0398 -0.1307829
      CHANNELS 3 Zrotation Xrotation Yrotation
      JOINT left_tibia_foot
      {
        OFFSET -4.370144 -48.10324 -4.275266
        CHANNELS 3 Zrotation Xrotation Yrotation
        End Site
        {
          OFFSET 0 -5 15
        }
      }
    }
  }
  JOINT pelvis_spine1
  {
    OFFSET 0 6.468898 -3.129235
    CHANNELS 3 Zrotation Xrotation Yrotation
    JOINT spine1
    {
      OFFSET 0 23.15396 4.99043
      CHANNELS 3 Zrotation Xrotation Yrotation
      JOINT spine2
      {
        OFFSET 0 20.79997 -5.064912
        CHANNELS 3 Zrotation Xrotation Yrotation
        JOINT neck
        {
          OFFSET 0 14.38658 9.616178
          CHANNELS 3 Zrotation Xrotation Yrotation
          End Site
          {
            OFFSET 0 20 0
          }
        }
      }
      JOINT right_manubrium
      {
        OFFSET -5.722621 16.35077 3.967754
        CHANNELS 3 Zrotation Xrotation Yrotation
        JOINT right_clavicle
        {
          OFFSET -13.16364 1.694482 -4.693211
          CHANNELS 3 Zrotation Xrotation Yrotation
          JOINT right_humerus
          {
            OFFSET -28.5034 -0.3100689 -2.792744
            CHANNELS 3 Zrotation Xrotation Yrotation
            JOINT right_radius
            {
              OFFSET -25.15693 0.02248979 -1.271978
              CHANNELS 3 Zrotation Xrotation Yrotation
              End Site
              {
                OFFSET -15 0 0
              }
            }
          }
        }
      }
      JOINT left_manubrium
      {
        OFFSET 5.722621 16.35077 3.967754
        CHANNELS 3 Zrotation Xrotation Yrotation
        JOINT left_clavicle
        {
          OFFSET 13.16364 1.694482 -4.693211
          CHANNELS 3 Zrotation Xrotation Yrotation
          JOINT left_humerus
          {
            OFFSET 29.39168 -1.063119 -2.237045
            CHANNELS 3 Zrotation Xrotation Yrotation
            JOINT left_radius
            {
              OFFSET 24.59957 -0.9528479 0.9047498
              CHANNELS 3 Zrotation Xrotation Yrotation
              End Site
              {
                OFFSET 15 -0 -0
              }
            }
          }
        }
      }
    }
  }
}
MOTION
Frames: 13
Frame Time: 0.0416666666667
0 103.5113 0 1.292065 -3.489399 0.2493822 1.821356 -10.37938 7.394302 -0 39.59946 -0 -5.702697 -16.46024 -4.299872 -6.489094 12.17176 -24.0366 -0 5.653657 -0 0.9922007 -19.23338 24.47253 -0.4557978 -2.101108 4.007831 -0.2489873 7.006806 -7.389044 1.725651 21.31598 8.878908 6.058675 -22.73112 9.330174 5.852364 -18.58488 9.906823 89.42048 34.84192 -24.92125 -0 0 17.77336 -6.378882 8.350639 2.023979 7.886928 -21.24744 -2.952104 -100.4185 42.88718 27.96551 0 0 -27.16426 -10.37596 17.08366 29.33895
0.1161857 103.9918 1.484974 0.6630246 -2.794376 0.3316731 2.922712 -13.35134 8.566405 -0 41.62586 -0 -5.508508 -15.3612 -4.522167 -6.055705 12.97328 -24.40032 -0 6.542578 -0 0.2160021 -19.97881 24.44975 -0.4388507 -2.004397 4.007839 -0.1538958 7.011638 -7.413873 1.686366 21.32706 8.859788 6.021317 -22.82806 9.281928 5.878029 -18.46063 9.94407 89.34949 34.99726 -24.81708 -0 0 17.488 -6.483087 8.492862 2.123845 7.831746 -21.27947 -2.896566 -100.084 42.55311 27.61211 0 0 -27.07367 -9.988196 17.09054 28.90862
0.1297918 102.8295 7.174731 1.383252 -11.18281 0.4261806 0.6014228 -9.04376 -4.472521 -0 18.39438 -0 -10.31173 -1.280541 -3.774806 -4.268147 8.648494 -8.739494 -0 19.99544 -0 -1.608206 -16.0772 18.36013 -1.5007 0.7961222 4.368751 2.808415 8.408259 -7.661535 0.2340609 21.34697 7.697844 4.384705 -23.95827 6.559582 6.15741 -15.62213 12.19171 84.04319 35.85105 -16.90141 -0 0 10.71732 -15.27691 12.01884 10.3186 4.22607 -20.31988 -2.404855 -89.58209 26.34295 17.68361 0 0 -20.27141 1.040989 11.4909 13.58223
0.05025828 102.8067 13.55057 1.466671 -12.14304 0.1633188 1.27009 -6.969896 -1.782147 -0 19.09074 -0 -7.262769 -2.598586 -6.216806 -4.04625 7.984955 -7.078773 -0 26.20573 -0 -2.0455 -14.23707 19.54263 -1.617757 0.6746464 4.016767 3.414222 9.038138 -8.321093 0.1363035 20.7793 7.48439 4.156271 -24.16977 6.319161 6.113106 -15.39246 12.60749 84.71112 34.24271 -17.81744 -0 0 9.836256 -14.71833 11.20454 10.59455 4.105571 -20.71172 -2.669133 -88.12559 23.63762 15.66882 0 0 -20.46116 2.691054 10.13974 10.70962
-0.2210681 103.5582 20.19718 1.079879 -13.23276 -0.786699 3.472728 -0.5022165 3.621013 -0 19.13728 -0 -2.082477 -6.464345 -9.025098 -2.926792 2.630916 -5.556124 -0 41.87985 -0 -4.52476 -10.26898 21.72628 -0.8660133 -0.4120426 3.446632 3.65798 11.35782 -9.33892 0.8232682 19.96012 6.28254 3.028881 -23.86472 6.671251 4.399577 -16.42952 13.23126 89.59708 31.37284 -21.70613 -0 0 7.278748 -14.05414 10.5137 10.3623 4.529363 -23.22083 -3.335031 -85.15136 17.74032 12.51416 0 0 -24.61834 8.191518 10.02375 3.775327
-0.552963 104.6391 26.51251 0.6179839 -12.41805 -1.996705 4.36114 2.818373 4.914003 -0 17.38601 -0 -1.094784 -8.114614 -8.314924 -2.174416 -3.031909 -5.47718 -0 48.02934 -0 -5.926563 -8.683005 21.62868 -0.6336076 -0.7787187 3.575895 3.303239 11.51941 -9.053572 1.090265 19.97963 6.235948 2.828576 -24.30109 7.295492 3.814418 -17.51908 13.34524 89.97918 31.23946 -20.83163 -0 0 8.631018 -14.07601 10.65233 10.18835 4.768176 -23.13332 -2.48235 -85.9594 16.5195 14.00911 0 0 -22.79615 10.25877 11.70299 1.011346
-0.9218552 105.6739 32.39882 0.2913295 -10.68707 -3.168372 4.877845 4.656499 4.025358 -0 13.53319 -0 -2.255505 -8.35 -6.238683 -1.542732 -8.513033 -5.321428 -0 50.01451 -0 -6.164134 -7.604165 20.42884 -0.5160149 -1.259689 3.953636 2.667452 11.82699 -8.5469 1.376899 20.28721 5.820057 2.364351 -24.14019 7.644952 2.80061 -19.32479 13.4917 90.16162 30.2535 -18.96645 -0 0 11.2289 -15.59648 10.94056 10.54235 4.729017 -22.65062 -1.6613 -87.21745 14.96401 16.72375 0 0 -18.66451 11.75031 13.86883 -1.591786
-1.350992 106.3017 38.12612 0.05888632 -10.58778 -4.256449 4.964368 6.086266 3.110383 -0 12.25359 -0 -3.480431 -8.631601 -5.453804 -1.113958 -10.55662 -5.233013 -0 47.32752 -0 -5.630565 -7.562722 20.46321 -0.5243247 -1.490185 4.406892 2.321136 12.12037 -8.250062 1.448291 20.60985 5.205467 1.871761 -23.73434 7.397143 1.880681 -20.67025 13.59402 90.33959 29.17234 -17.72387 -0 0 12.97144 -16.80682 10.73556 10.93602 4.333241 -22.24392 -1.623278 -87.92462 14.16908 18.83104 0 0 -15.95581 11.80429 14.72731 -2.375438
-1.83688 106.6009 43.76235 -0.1981722 -11.05636 -5.328449 4.921482 7.552096 2.271343 -0 11.9007 -0 -4.548166 -9.020499 -5.120522 -0.7868688 -11.4601 -5.365029 -0 43.16123 -0 -5.14159 -7.896399 20.94656 -0.4322366 -1.590761 5.013219 1.960579 12.64114 -7.933336 1.515783 20.9263 4.354566 1.250904 -23.19772 6.911397 0.5827638 -22.16101 13.66978 90.97233 27.70505 -16.70513 -0 0 14.46588 -18.08094 10.30342 11.40466 3.679582 -21.91038 -2.0885 -88.34983 13.4977 20.99847 0 0 -14.12712 11.28748 14.9623 -2.384308
-2.352169 106.6694 49.31515 -0.4611612 -11.24877 -6.380084 4.805095 9.189263 1.718737 -0 11.94698 -0 -5.3572 -9.93625 -4.779937 -0.4827735 -12.77668 -5.644832 -0 38.96039 -0 -4.864591 -8.09953 21.39375 -0.3589999 -1.636767 5.699156 1.639441 13.05955 -7.591578 1.53405 21.17662 3.584498 0.6667803 -22.83548 6.459527 -0.7342281 -23.6772 13.63481 91.4815 26.30562 -15.63659 -0 0 16.15113 -19.03469 9.809992 11.73642 3.05685 -21.45032 -2.561041 -88.92347 13.1983 23.36555 0 0 -12.49503 10.53609 14.8115 -1.987004
-2.863508 106.5107 54.79649 -0.7231796 -11.11102 -7.39177 4.628093 11.13129 1.308693 -0 12.24686 -0 -6.065846 -11.31962 -4.336299 -0.1584523 -14.65593 -6.025037 -0 34.28835 -0 -4.698417 -8.141007 21.79466 -0.3257344 -1.662226 6.460559 1.333164 13.35549 -7.189826 1.511358 21.36052 2.902047 0.1118347 -22.62342 6.061442 -2.031938 -25.24679 13.48049 91.75702 25.00431 -14.37367 -0 0 18.16681 -19.75131 9.32827 12.02691 2.505718 -20.81542 -2.949827 -89.71389 13.2027 26.01061 0 0 -10.88262 9.625779 14.33827 -1.258801
-3.331383 106.1516 60.26383 -0.9532256 -10.56063 -8.335184 4.325908 13.43303 1.059463 -0 13.00044 -0 -6.585693 -13.11776 -3.766805 0.1479687 -17.0998 -6.496449 -0 28.93751 -0 -4.643137 -8.011788 22.15675 -0.3787964 -1.676463 7.204686 1.051329 13.47042 -6.73545 1.450381 21.45584 2.39156 -0.3392076 -22.52029 5.744056 -3.066519 -26.62924 13.23184 91.61529 24.0148 -12.93927 -0 0 20.3054 -20.24311 8.923431 12.41693 2.107186 -20.02456 -3.157731 -90.61005 13.52227 28.56401 0 0 -9.502213 8.59837 13.52811 -0.1643614
-3.715644 105.6844 65.85106 -1.088902 -9.43427 -9.171828 3.821102 15.99799 0.9101049 -0 14.32028 -0 -6.839942 -14.86839 -2.959698 0.3579708 -19.97995 -6.964409 -0 23.05848 -0 -4.642275 -7.687418 22.3412 -0.5422889 -1.692256 7.857473 0.7703981 13.39155 -6.225476 1.365189 21.47475 2.084518 -0.6401915 -22.4381 5.513636 -3.709013 -27.68433 12.92549 90.98779 23.4425 -11.34628 -0 0 22.39861 -20.62985 8.598887 13.01979 1.887533 -19.11082 -3.166797 -91.48409 14.09513 30.74997 0 0 -8.46095 7.515326 12.45217 1.232966
